<svg width="24" height="24" viewBox="0 0 24 24" fill="none" xmlns="http://www.w3.org/2000/svg">
<g clip-path="url(#clip0_175_302)">
<mask id="mask0_175_302" style="mask-type:luminance" maskUnits="userSpaceOnUse" x="0" y="0" width="24" height="24">
<path d="M23.7695 9.77372H12.2556V14.3873H18.8716C18.7652 15.0403 18.5264 15.6826 18.1767 16.2683C17.776 16.9393 17.2807 17.4502 16.7729 17.8392C15.2521 19.0046 13.479 19.2429 12.2476 19.2429C9.13691 19.2429 6.47903 17.2325 5.45011 14.5006C5.40859 14.4014 5.38102 14.299 5.34744 14.1978C5.12007 13.5025 4.99584 12.7661 4.99584 12.0008C4.99584 11.2042 5.13037 10.4417 5.37566 9.7216C6.34319 6.88141 9.06099 4.76006 12.2498 4.76006C12.8912 4.76006 13.5089 4.83641 14.0946 4.98869C15.4333 5.3367 16.3801 6.02212 16.9603 6.56428L20.4613 3.13576C18.3317 1.18317 15.5555 2.95218e-09 12.244 2.95218e-09C9.59665 -5.69793e-05 7.1525 0.824781 5.1496 2.21878C3.52531 3.34928 2.19316 4.86288 1.29412 6.62075C0.457891 8.25066 0 10.0569 0 11.999C0 13.9411 0.458591 15.7661 1.29483 17.381V17.3918C2.1781 19.1062 3.46975 20.5823 5.0396 21.7076C6.41104 22.6907 8.87017 24 12.244 24C14.1842 24 15.9038 23.6502 17.4203 22.9946C18.5142 22.5217 19.4835 21.9049 20.3611 21.1122C21.5206 20.0647 22.4288 18.7691 23.0486 17.2785C23.6684 15.7878 24 14.1022 24 12.2747C24 11.4236 23.9145 10.5592 23.7695 9.77363V9.77372Z" fill="white"/>
</mask>
<g mask="url(#mask0_175_302)">
<g filter="url(#filter0_f_175_302)">
<path d="M-0.176636 12.0804C-0.163909 13.9919 0.380764 15.9641 1.20522 17.5562V17.5672C1.80093 18.7234 2.61509 19.6367 3.5424 20.5416L9.14315 18.498C8.08352 17.9598 7.92183 17.6299 7.16225 17.0281C6.38603 16.2454 5.8075 15.3468 5.44722 14.2932H5.4327L5.44722 14.2823C5.21019 13.5865 5.18681 12.848 5.17807 12.0804H-0.176636Z" fill="url(#paint0_radial_175_302)"/>
</g>
<g filter="url(#filter1_f_175_302)">
<path d="M12.2557 -0.0872803C11.7021 1.85751 11.9137 3.74792 12.2557 4.84784C12.8949 4.84831 13.5107 4.92451 14.0946 5.07632C15.4333 5.42433 16.38 6.10977 16.9603 6.65193L20.5508 3.13581C18.4238 1.18555 15.864 -0.0842076 12.2557 -0.0872803Z" fill="url(#paint1_radial_175_302)"/>
</g>
<g filter="url(#filter2_f_175_302)">
<path d="M12.2437 -0.102661C9.52834 -0.10272 7.02145 0.743294 4.96714 2.17309C4.20437 2.70397 3.50439 3.31723 2.8811 3.99919C2.71782 5.53105 4.10342 7.41386 6.84735 7.39828C8.17868 5.84963 10.1477 4.84766 12.3392 4.84766C12.3412 4.84766 12.3432 4.84782 12.3452 4.84783L12.2557 -0.102311C12.2516 -0.102313 12.2477 -0.102661 12.2437 -0.102661Z" fill="url(#paint2_radial_175_302)"/>
</g>
<g filter="url(#filter3_f_175_302)">
<path d="M21.2057 12.6347L18.7821 14.2997C18.6758 14.9526 18.4368 15.595 18.0871 16.1806C17.6864 16.8517 17.1911 17.3626 16.6834 17.7516C15.1657 18.9146 13.3973 19.1541 12.1662 19.1551C10.8937 21.3223 10.6707 22.4078 12.2557 24.1569C14.217 24.1555 15.9558 23.8014 17.4895 23.1384C18.5981 22.6592 19.5804 22.0341 20.4697 21.2307C21.6448 20.1692 22.5653 18.8561 23.1934 17.3455C23.8216 15.8349 24.1575 14.1267 24.1575 12.2747L21.2057 12.6347Z" fill="url(#paint3_radial_175_302)"/>
</g>
<g filter="url(#filter4_f_175_302)">
<path d="M12.0767 9.59839V14.5626H23.7372C23.8398 13.8827 24.1789 13.003 24.1789 12.2747C24.1789 11.4235 24.0935 10.384 23.9485 9.59839H12.0767Z" fill="#3086FF"/>
</g>
<g filter="url(#filter5_f_175_302)">
<path d="M2.93675 3.82397C2.21717 4.61129 1.60243 5.49252 1.11501 6.44555C0.278793 8.07546 -0.179077 10.057 -0.179077 11.999C-0.179077 12.0264 -0.176812 12.0532 -0.176629 12.0805C0.193707 12.7906 4.9389 12.6546 5.17807 12.0805C5.17777 12.0537 5.17476 12.0276 5.17476 12.0007C5.17476 11.2042 5.30933 10.6171 5.55462 9.89696C5.85721 9.00868 6.33101 8.1907 6.93687 7.48595C7.07421 7.3106 7.44054 6.93366 7.54742 6.70756C7.58814 6.62144 7.47351 6.5731 7.4671 6.54279C7.45993 6.50888 7.30624 6.53615 7.27181 6.51089C7.16249 6.4307 6.946 6.38883 6.81455 6.35161C6.53357 6.27205 6.06792 6.09661 5.80928 5.91474C4.99174 5.33986 3.71588 4.65317 2.93675 3.82397Z" fill="url(#paint4_radial_175_302)"/>
</g>
<g filter="url(#filter6_f_175_302)">
<path d="M5.82681 6.54615C7.72262 7.69454 8.26782 5.9665 9.52827 5.42575L7.33568 0.878906C6.52912 1.2179 5.76709 1.63907 5.06004 2.13117C4.00412 2.86608 3.07166 3.76289 2.30139 4.78347L5.82681 6.54615Z" fill="url(#paint5_radial_175_302)"/>
</g>
<g filter="url(#filter7_f_175_302)">
<path d="M6.59844 18.1468C4.05357 19.0655 3.65515 19.0985 3.4209 20.6756C3.86855 21.1125 4.34952 21.5165 4.86062 21.8829C6.23206 22.866 8.87012 24.1753 12.244 24.1753C12.2479 24.1753 12.2517 24.175 12.2557 24.175V19.0675C12.2531 19.0675 12.2502 19.0677 12.2476 19.0677C10.9842 19.0677 9.97467 18.7358 8.93955 18.1588C8.68433 18.0165 8.2213 18.3986 7.98592 18.2278C7.66128 17.9922 6.88001 18.4307 6.59844 18.1468Z" fill="url(#paint6_radial_175_302)"/>
</g>
<g opacity="0.5" filter="url(#filter8_f_175_302)">
<path d="M10.7653 18.9066V24.0865C11.2373 24.1417 11.7286 24.1753 12.244 24.1753C12.7606 24.1753 13.2604 24.1488 13.7461 24.1V18.9415C13.2018 19.0346 12.6892 19.0677 12.2476 19.0677C11.7391 19.0677 11.2445 19.0085 10.7653 18.9066Z" fill="url(#paint7_linear_175_302)"/>
</g>
</g>
</g>
<defs>
<filter id="filter0_f_175_302" x="-0.646715" y="11.6104" width="10.26" height="9.40134" filterUnits="userSpaceOnUse" color-interpolation-filters="sRGB">
<feFlood flood-opacity="0" result="BackgroundImageFix"/>
<feBlend mode="normal" in="SourceGraphic" in2="BackgroundImageFix" result="shape"/>
<feGaussianBlur stdDeviation="0.23504" result="effect1_foregroundBlur_175_302"/>
</filter>
<filter id="filter1_f_175_302" x="11.4452" y="-0.55736" width="9.57566" height="7.67942" filterUnits="userSpaceOnUse" color-interpolation-filters="sRGB">
<feFlood flood-opacity="0" result="BackgroundImageFix"/>
<feBlend mode="normal" in="SourceGraphic" in2="BackgroundImageFix" result="shape"/>
<feGaussianBlur stdDeviation="0.23504" result="effect1_foregroundBlur_175_302"/>
</filter>
<filter id="filter2_f_175_302" x="2.39808" y="-0.57274" width="10.4172" height="8.44114" filterUnits="userSpaceOnUse" color-interpolation-filters="sRGB">
<feFlood flood-opacity="0" result="BackgroundImageFix"/>
<feBlend mode="normal" in="SourceGraphic" in2="BackgroundImageFix" result="shape"/>
<feGaussianBlur stdDeviation="0.23504" result="effect1_foregroundBlur_175_302"/>
</filter>
<filter id="filter3_f_175_302" x="10.6687" y="11.8046" width="13.9588" height="12.8224" filterUnits="userSpaceOnUse" color-interpolation-filters="sRGB">
<feFlood flood-opacity="0" result="BackgroundImageFix"/>
<feBlend mode="normal" in="SourceGraphic" in2="BackgroundImageFix" result="shape"/>
<feGaussianBlur stdDeviation="0.23504" result="effect1_foregroundBlur_175_302"/>
</filter>
<filter id="filter4_f_175_302" x="11.6066" y="9.12831" width="13.0425" height="5.90439" filterUnits="userSpaceOnUse" color-interpolation-filters="sRGB">
<feFlood flood-opacity="0" result="BackgroundImageFix"/>
<feBlend mode="normal" in="SourceGraphic" in2="BackgroundImageFix" result="shape"/>
<feGaussianBlur stdDeviation="0.23504" result="effect1_foregroundBlur_175_302"/>
</filter>
<filter id="filter5_f_175_302" x="-0.649156" y="3.3539" width="8.67539" height="9.67954" filterUnits="userSpaceOnUse" color-interpolation-filters="sRGB">
<feFlood flood-opacity="0" result="BackgroundImageFix"/>
<feBlend mode="normal" in="SourceGraphic" in2="BackgroundImageFix" result="shape"/>
<feGaussianBlur stdDeviation="0.23504" result="effect1_foregroundBlur_175_302"/>
</filter>
<filter id="filter6_f_175_302" x="-1.00346" y="-2.42594" width="13.8366" height="12.6629" filterUnits="userSpaceOnUse" color-interpolation-filters="sRGB">
<feFlood flood-opacity="0" result="BackgroundImageFix"/>
<feBlend mode="normal" in="SourceGraphic" in2="BackgroundImageFix" result="shape"/>
<feGaussianBlur stdDeviation="1.65243" result="effect1_foregroundBlur_175_302"/>
</filter>
<filter id="filter7_f_175_302" x="2.95082" y="17.6563" width="9.77488" height="6.98911" filterUnits="userSpaceOnUse" color-interpolation-filters="sRGB">
<feFlood flood-opacity="0" result="BackgroundImageFix"/>
<feBlend mode="normal" in="SourceGraphic" in2="BackgroundImageFix" result="shape"/>
<feGaussianBlur stdDeviation="0.23504" result="effect1_foregroundBlur_175_302"/>
</filter>
<filter id="filter8_f_175_302" x="10.2952" y="18.4365" width="3.92099" height="6.20884" filterUnits="userSpaceOnUse" color-interpolation-filters="sRGB">
<feFlood flood-opacity="0" result="BackgroundImageFix"/>
<feBlend mode="normal" in="SourceGraphic" in2="BackgroundImageFix" result="shape"/>
<feGaussianBlur stdDeviation="0.23504" result="effect1_foregroundBlur_175_302"/>
</filter>
<radialGradient id="paint0_radial_175_302" cx="0" cy="0" r="1" gradientTransform="matrix(-0.498722 -11.9519 17.9311 -0.717223 9.03103 20.3615)" gradientUnits="userSpaceOnUse">
<stop offset="0.141612" stop-color="#1ABD4D"/>
<stop offset="0.247515" stop-color="#6EC30D"/>
<stop offset="0.311547" stop-color="#8AC502"/>
<stop offset="0.366013" stop-color="#A2C600"/>
<stop offset="0.445673" stop-color="#C8C903"/>
<stop offset="0.540305" stop-color="#EBCB03"/>
<stop offset="0.615636" stop-color="#F7CD07"/>
<stop offset="0.699345" stop-color="#FDCD04"/>
<stop offset="0.771242" stop-color="#FDCE05"/>
<stop offset="0.860566" stop-color="#FFCE0A"/>
</radialGradient>
<radialGradient id="paint1_radial_175_302" cx="0" cy="0" r="1" gradientTransform="matrix(8.46967 -2.03557e-05 -1.19045e-05 10.7093 20.2149 6.39752)" gradientUnits="userSpaceOnUse">
<stop offset="0.408458" stop-color="#FB4E5A"/>
<stop offset="1" stop-color="#FF4540"/>
</radialGradient>
<radialGradient id="paint2_radial_175_302" cx="0" cy="0" r="1" gradientTransform="matrix(-11.8666 6.43492 8.91875 15.766 15.5896 -1.65286)" gradientUnits="userSpaceOnUse">
<stop offset="0.231273" stop-color="#FF4541"/>
<stop offset="0.311547" stop-color="#FF4540"/>
<stop offset="0.457516" stop-color="#FF4640"/>
<stop offset="0.540305" stop-color="#FF473F"/>
<stop offset="0.699346" stop-color="#FF5138"/>
<stop offset="0.771242" stop-color="#FF5B33"/>
<stop offset="0.860566" stop-color="#FF6C29"/>
<stop offset="1" stop-color="#FF8C18"/>
</radialGradient>
<radialGradient id="paint3_radial_175_302" cx="0" cy="0" r="1" gradientTransform="matrix(-21.5204 -27.5047 -10.3696 7.77752 12.4321 22.6036)" gradientUnits="userSpaceOnUse">
<stop offset="0.131546" stop-color="#0CBA65"/>
<stop offset="0.209784" stop-color="#0BB86D"/>
<stop offset="0.297297" stop-color="#09B479"/>
<stop offset="0.396257" stop-color="#08AD93"/>
<stop offset="0.477124" stop-color="#0AA6A9"/>
<stop offset="0.568425" stop-color="#0D9CC6"/>
<stop offset="0.667385" stop-color="#1893DD"/>
<stop offset="0.768727" stop-color="#258BF1"/>
<stop offset="0.858506" stop-color="#3086FF"/>
</radialGradient>
<radialGradient id="paint4_radial_175_302" cx="0" cy="0" r="1" gradientTransform="matrix(-1.52295 12.8522 18.1501 2.06168 11.204 2.16411)" gradientUnits="userSpaceOnUse">
<stop offset="0.366013" stop-color="#FF4E3A"/>
<stop offset="0.457516" stop-color="#FF8A1B"/>
<stop offset="0.540305" stop-color="#FFA312"/>
<stop offset="0.615636" stop-color="#FFB60C"/>
<stop offset="0.771242" stop-color="#FFCD0A"/>
<stop offset="0.860566" stop-color="#FECF0A"/>
<stop offset="0.915033" stop-color="#FECF08"/>
<stop offset="1" stop-color="#FDCD01"/>
</radialGradient>
<radialGradient id="paint5_radial_175_302" cx="0" cy="0" r="1" gradientTransform="matrix(-4.40212 4.76677 -13.7322 -12.1566 9.06232 2.03076)" gradientUnits="userSpaceOnUse">
<stop offset="0.315904" stop-color="#FF4C3C"/>
<stop offset="0.603818" stop-color="#FF692C"/>
<stop offset="0.726837" stop-color="#FF7825"/>
<stop offset="0.884534" stop-color="#FF8D1B"/>
<stop offset="1" stop-color="#FF9F13"/>
</radialGradient>
<radialGradient id="paint6_radial_175_302" cx="0" cy="0" r="1" gradientTransform="matrix(-11.8666 -6.43492 8.91876 -15.766 15.5896 25.6526)" gradientUnits="userSpaceOnUse">
<stop offset="0.231273" stop-color="#0FBC5F"/>
<stop offset="0.311547" stop-color="#0FBC5F"/>
<stop offset="0.366013" stop-color="#0FBC5E"/>
<stop offset="0.457516" stop-color="#0FBC5D"/>
<stop offset="0.540305" stop-color="#12BC58"/>
<stop offset="0.699346" stop-color="#28BF3C"/>
<stop offset="0.771242" stop-color="#38C02B"/>
<stop offset="0.860566" stop-color="#52C218"/>
<stop offset="0.915033" stop-color="#67C30F"/>
<stop offset="1" stop-color="#86C504"/>
</radialGradient>
<linearGradient id="paint7_linear_175_302" x1="10.7653" y1="21.541" x2="13.7461" y2="21.541" gradientUnits="userSpaceOnUse">
<stop stop-color="#0FBC5C"/>
<stop offset="1" stop-color="#0CBA65"/>
</linearGradient>
<clipPath id="clip0_175_302">
<rect width="24" height="24" fill="white"/>
</clipPath>
</defs>
</svg>
