<svg width="40" height="40" viewBox="0 0 40 40" fill="none" xmlns="http://www.w3.org/2000/svg">
<circle cx="20" cy="20" r="20" fill="#0F0F0F"/>
<path d="M28.5129 13.0336C27.0573 11.2549 25.0812 9.97681 22.8619 9.37883C20.6427 8.78084 18.2919 8.89302 16.1397 9.6996C13.9875 10.5062 12.142 11.9666 10.8624 13.8759C9.58284 15.7851 8.93342 18.0472 9.00539 20.3445C9.07737 22.6417 9.86711 24.8587 11.2637 26.6841C12.6603 28.5095 14.5936 29.8516 16.7921 30.5218C18.9905 31.1921 21.3438 31.1569 23.5212 30.4212C25.6986 29.6855 27.5909 28.2862 28.9323 26.4198L24.7622 23.4227C24.0471 24.4177 23.0382 25.1637 21.8773 25.556C20.7164 25.9483 19.4618 25.967 18.2897 25.6097C17.1176 25.2523 16.0869 24.5368 15.3423 23.5636C14.5977 22.5904 14.1767 21.4084 14.1383 20.1836C14.0999 18.9589 14.4461 17.7529 15.1284 16.735C15.8106 15.7171 16.7945 14.9384 17.9419 14.5084C19.0893 14.0784 20.3427 14.0186 21.5258 14.3374C22.709 14.6562 23.7626 15.3376 24.5386 16.2859L28.5129 13.0336Z" fill="#FCFCFC"/>
</svg>
